<svg width="100" height="101" viewBox="0 0 100 101" fill="none" xmlns="http://www.w3.org/2000/svg">
<g clip-path="url(#clip0_16_156)">
<path d="M19.6971 100.5H80.3031C82.8134 100.5 84.8486 98.4648 84.8486 95.9545V44.4394C84.8486 41.9291 82.8134 39.8939 80.3031 39.8939H75.7577V26.2576C75.7577 12.0548 64.2028 0.499985 50.0001 0.499985C35.7974 0.499985 24.2425 12.0548 24.2425 26.2576V39.8939H19.6971C17.1868 39.8939 15.1516 41.9291 15.1516 44.4394V95.9545C15.1516 98.4648 17.1868 100.5 19.6971 100.5ZM54.5455 71.7079V77.7727C54.5455 80.283 52.5104 82.3182 50.0001 82.3182C47.4898 82.3182 45.4546 80.283 45.4546 77.7727V71.7079C43.6159 70.3245 42.4243 68.1248 42.4243 65.6515C42.4243 61.4742 45.8228 58.0757 50.0001 58.0757C54.1774 58.0757 57.5759 61.4742 57.5759 65.6515C57.5759 68.1248 56.3843 70.3245 54.5455 71.7079ZM33.3334 26.2576C33.3334 17.0676 40.8101 9.59089 50.0001 9.59089C59.1901 9.59089 66.6668 17.0676 66.6668 26.2576V39.8939H33.3334V26.2576Z" fill="black"/>
</g>
<defs>
<clipPath id="clip0_16_156">
<rect width="100" height="100" fill="white" transform="translate(0 0.5)"/>
</clipPath>
</defs>
</svg>
